<?xml version="1.0" encoding="utf-8"?>
<!-- Generator: Adobe Illustrator 21.1.0, SVG Export Plug-In . SVG Version: 6.00 Build 0)  -->
<svg version="1.1" id="Layer_1" xmlns="http://www.w3.org/2000/svg" xmlns:xlink="http://www.w3.org/1999/xlink" x="0px" y="0px"
	 viewBox="0 0 644.3 115.8" style="enable-background:new 0 0 644.3 115.8;" xml:space="preserve">
<style type="text/css">
	.st0{fill:#800020;}
</style>
<g id="Layer_5">
	<path class="st0" d="M529,81.9c-1.4,0-2.8-0.8-3.4-2.1l-10.8-20.9c-1.6-3.2-4.8-5.2-8.4-5.3c-1.2,0-2.4,0.3-3.5,0.8
		c-4.5,2.1-6.5,7.4-4.4,11.9c0.1,0.1,0.1,0.3,0.2,0.4l22.4,43.3c0.1,0.2,0.2,0.3,0.3,0.4l0.2,0.3l0.2,0.3c0.1,0.1,0.2,0.3,0.3,0.4
		c0.2,0.2,0.4,0.5,0.6,0.7l0.1,0.1l0.2,0.2c0.1,0.1,0.2,0.2,0.3,0.3c0.3,0.2,0.6,0.5,0.9,0.7l0.3,0.2l0.1,0.1l0.2,0.1
		c0.4,0.2,0.7,0.4,1.1,0.5l0.3,0.1l0.3,0.1c0.2,0.1,0.5,0.1,0.8,0.2h0.2l0.3,0.1c0.2,0,0.3,0.1,0.5,0.1h1.8c0.2,0,0.3-0.1,0.5-0.1
		l0.3-0.1h0.2c0.3,0,0.5-0.1,0.8-0.2l0.3-0.1l0.3-0.1c0.4-0.1,0.8-0.3,1.1-0.5l0.2-0.1l0.1-0.1l0.3-0.2c0.3-0.2,0.6-0.4,0.9-0.7
		c0.1-0.1,0.2-0.2,0.3-0.3l0.2-0.2l0.1-0.1c0.2-0.2,0.4-0.4,0.6-0.7c0.1-0.1,0.2-0.3,0.3-0.4l0.2-0.3l0.2-0.3
		c0.1-0.1,0.3-0.3,0.4-0.4l7.3-14l-10.1-19.5l-1.7,3.4C531.8,81.1,530.4,81.9,529,81.9z"/>
	<path class="st0" d="M569.8,79.8c-1,1.9-3.3,2.6-5.2,1.7c-0.7-0.4-1.3-0.9-1.7-1.7l-10.8-20.9c-1.6-3.2-4.8-5.2-8.4-5.3
		c-1.2,0-2.4,0.3-3.5,0.8c-4.5,2-6.5,7.3-4.4,11.8c0.1,0.1,0.1,0.3,0.2,0.4l22.5,43.3c0.1,0.2,0.2,0.3,0.3,0.4l0.2,0.3l0.2,0.3
		c0.1,0.1,0.2,0.3,0.3,0.4c0.2,0.2,0.4,0.5,0.6,0.7l0.1,0.1l0.2,0.2c0.1,0.1,0.2,0.2,0.3,0.3c0.3,0.2,0.6,0.5,0.9,0.7l0.3,0.2
		l0.1,0.1l0.2,0.1c0.4,0.2,0.7,0.4,1.1,0.5l0.3,0.1l0.3,0.1c0.2,0.1,0.5,0.1,0.8,0.2h0.2l0.3,0.1c0.2,0,0.3,0.1,0.5,0.1h1.8
		c0.2,0,0.3-0.1,0.5-0.1l0.3-0.1h0.2c0.3,0,0.5-0.1,0.8-0.2l0.3-0.1l0.3-0.1c0.4-0.1,0.8-0.3,1.1-0.5l0.2-0.1l0.1-0.1l0.3-0.2
		c0.3-0.2,0.6-0.4,0.9-0.7c0.1-0.1,0.2-0.2,0.3-0.3l0.2-0.2l0.1-0.1c0.2-0.2,0.4-0.4,0.6-0.7c0.1-0.1,0.2-0.3,0.3-0.4l0.2-0.3
		l0.2-0.3c0.1-0.1,0.2-0.3,0.3-0.4l7.3-14l-10-19.5L569.8,79.8z"/>
	<path class="st0" d="M621.5,70.7c-1.1-0.5-2.3-0.8-3.5-0.8c-3.6,0.1-6.8,2.1-8.4,5.3l-2.4,4.7c-1,1.9-3.3,2.6-5.2,1.6
		c-0.7-0.4-1.3-0.9-1.6-1.6l-10.8-20.9c-1.6-3.2-4.8-5.2-8.4-5.3c-1.2,0-2.4,0.3-3.5,0.8c-4.5,2.1-6.5,7.4-4.4,11.9
		c0.1,0.1,0.1,0.3,0.2,0.4l22.4,43.3c0.1,0.2,0.2,0.3,0.3,0.4l0.2,0.3l0.2,0.3c0.1,0.1,0.2,0.3,0.3,0.4c0.2,0.2,0.4,0.5,0.6,0.7
		l0.1,0.1l0.2,0.2c0.1,0.1,0.2,0.2,0.3,0.3c0.3,0.2,0.6,0.5,0.9,0.7l0.3,0.2l0.1,0.1l0.2,0.1c0.4,0.2,0.7,0.4,1.1,0.5l0.3,0.1
		l0.3,0.1c0.2,0.1,0.5,0.1,0.8,0.2h0.2l0.3,0.1c0.2,0,0.3,0.1,0.5,0.1h1.8c0.2,0,0.3-0.1,0.5-0.1l0.3-0.1h0.2c0.3,0,0.5-0.1,0.8-0.2
		l0.3-0.1l0.3-0.1c0.4-0.1,0.8-0.3,1.1-0.5l0.2-0.1l0.1-0.1l0.3-0.2c0.3-0.2,0.6-0.4,0.9-0.7c0.1-0.1,0.2-0.2,0.3-0.3l0.2-0.2
		l0.1-0.1c0.2-0.2,0.4-0.4,0.6-0.7c0.1-0.1,0.2-0.3,0.3-0.4l0.2-0.3l0.2-0.3c0.1-0.1,0.2-0.3,0.3-0.4l11.4-22c1.6-3.1,4.7-5,8.2-5.2
		l13-0.4C638.2,79.2,625.4,72.5,621.5,70.7z"/>
	<path d="M305.3,115.8c-7.4,0-13.4-2.7-17.6-8c-2.7-3.3-2.1-8.2,1.2-10.8c0.5-0.4,1-0.7,1.5-1l0.4-0.2c3.3-1.5,7.2-0.5,9.4,2.4
		c0.2,0.3,0.5,0.6,0.7,0.8c1.2,1.2,2.9,1.8,4.6,1.8c3.5,0,5-1.3,5-4.4c0-1.7-1.4-3.4-4.2-5.1c-1.3-0.7-2.6-1.3-3.9-1.9
		s-2.6-1.2-4-1.9c-4-2-6.9-3.9-8.6-6c-2.3-2.9-3.5-6.5-3.4-10.2c-0.2-5.1,1.9-10,5.5-13.4c3.7-3.5,8.6-5.4,13.7-5.3
		c5-0.1,9.9,1.9,13.3,5.7c1.6,1.7,2.3,4,1.9,6.2c-0.4,2.3-1.8,4.3-3.9,5.4l0,0l-0.7,0.4c-2.9,1.5-6.5,0.9-8.8-1.4
		c-0.7-0.8-1.7-1.2-2.8-1.2c-0.7,0-1.5,0.2-2,0.8c-0.5,0.5-0.7,1.1-0.7,1.8c0,0.5,0.5,2.4,6.5,4.9c7.2,3.1,12,5.9,14.6,8.6
		s4.1,6.6,4.1,11.3c0.1,5.7-2.3,11.2-6.6,14.9C316.4,113.9,310.9,115.9,305.3,115.8z"/>
	<path d="M130.4,68.7c8.6-0.1,15.6,6.8,15.7,15.4c0.1,8.6-6.8,15.6-15.4,15.7c-8.6,0.1-15.6-6.8-15.7-15.4c0,0,0-0.1,0-0.1
		C115,75.7,121.9,68.7,130.4,68.7 M130.5,52.7c-17.4,0-31.6,14-31.6,31.5c0,17.4,14,31.6,31.5,31.6s31.6-14,31.6-31.5
		c0,0,0-0.1,0-0.1C162,66.8,147.9,52.7,130.5,52.7C130.5,52.7,130.5,52.7,130.5,52.7z"/>
	<path d="M490.1,91.2c3.8,0,6.9-3,7-6.8c0-0.1,0-0.1,0-0.2c-0.1-17.4-14.2-31.4-31.6-31.4c-17.4,0.1-31.4,14.2-31.4,31.6
		s14.2,31.4,31.6,31.4c2.8,0,5.6-0.4,8.4-1.2c4.2-1.3,6.6-5.7,5.4-10c-0.2-0.7-0.6-1.5-1-2.1l0,0c-2-2.9-5.6-4.2-8.9-3.2
		c-7.1,1.9-14.5-1.5-17.7-8.1L490.1,91.2z M451.8,77.2c3.8-7.6,13-10.7,20.7-6.9c3,1.5,5.5,3.9,6.9,6.9H451.8z"/>
	<path d="M362.2,99.8c-8.6,0-15.6-7-15.6-15.6s7-15.6,15.6-15.6l0,0c2.2,0,4.5,0.5,6.5,1.4c3,1.4,6.6,0.8,9-1.6l0,0
		c3.1-3.1,3.2-8.2,0.1-11.3c-0.7-0.7-1.5-1.3-2.4-1.7c-15.9-7.3-34.6-0.3-41.8,15.6s-0.3,34.6,15.6,41.8c8.3,3.8,17.9,3.8,26.3,0
		c4-1.8,5.9-6.5,4.1-10.6c-0.4-0.9-1-1.7-1.7-2.4l0,0c-2.4-2.4-6-3-9-1.6C366.7,99.3,364.5,99.8,362.2,99.8z"/>
	<path d="M62.2,57.4c-0.2-4,2.1-7.6,5.8-9.1c5.9-2.1,9.8-7.7,9.9-13.9c0-11.1-11.6-15.9-20.9-15.9c-22.5,0-37.1,20.9-37.1,42
		c0,24.1,16.2,36.8,39.3,36.8c5.5,0,12.8-1.7,19.2-4.8c4.5-2.2,9.9-0.4,12.1,4.1c0.6,1.3,0.9,2.6,0.9,4l0,0c0,3.1-1.6,6-4.2,7.6
		c-8.5,5.2-17.8,7.4-28,7.4C24.6,115.8,0,95.3,0,59.5C0,26.8,23.5,0,56.9,0c15.5,0,30.1,5.7,37.3,20.3c2.3,4.4,3.5,9.2,3.5,14.1
		c0,15-9.8,27-23.1,31.6c-4.9,1.6-10.3-1-11.9-6C62.4,59.2,62.2,58.3,62.2,57.4L62.2,57.4z"/>
	<path d="M203.1,77.7c-3.7-0.1-7.2-1.7-9.5-4.6c-2.9,1.6-4.4,4.6-5.4,7.6c-0.3,0.8-0.5,1.7-0.6,2.5v22c0,5-4,9-9,9l0,0c-5,0-9-4-9-9
		V62.8c0-4.8,3.9-8.7,8.7-8.7l0,0h0.6c4.8,0,8.7,3.9,8.7,8.7l0,0l0,0c3.3-5.5,9-10,15.5-10c6.9-0.1,12.5,5.5,12.5,12.3
		c0,0,0,0,0,0.1C215.7,72.1,210.1,77.7,203.1,77.7C203.2,77.7,203.2,77.7,203.1,77.7z"/>
	<path d="M281.5,102.8c2.6,3.8,1.6,8.9-2.1,11.5c-1.2,0.9-2.7,1.3-4.2,1.4h-1.2c-16.6,0-17-23.7-36-23.7v13.5c0,4.9-4,8.8-8.8,8.8
		h-0.4c-4.9,0-8.8-4-8.8-8.8V10.6c0-4.9,4-8.8,8.8-8.8h0.4c4.9,0,8.8,4,8.8,8.8v63.1c10.3,0,16.4-3.9,18.4-12.6c0.9-4.1,4.5-7,8.6-7
		l0,0c4.9,0,8.8,4,8.8,8.9c0,0.9-0.1,1.7-0.4,2.6c-2.6,8.8-8.6,16-18.5,17.7c11,1.7,14.4,14.1,22.2,16.3
		C278.9,100.1,280.4,101.2,281.5,102.8L281.5,102.8z"/>
	<path d="M421.2,77.7c-3.7-0.1-7.2-1.7-9.5-4.6c-2.9,1.6-4.4,4.6-5.4,7.6c-0.3,0.8-0.5,1.7-0.6,2.5v22.9c0,4.5-3.7,8.2-8.2,8.2l0,0
		h-1.7c-4.5,0-8.2-3.7-8.2-8.2v0V62.8c0-4.8,3.9-8.7,8.7-8.7l0,0h0.7c4.8,0,8.7,3.9,8.7,8.7l0,0l0,0c3.3-5.5,9-10,15.5-10
		c6.9-0.1,12.5,5.5,12.5,12.3c0,0,0,0,0,0.1C433.8,72.1,428.2,77.7,421.2,77.7z"/>
</g>
</svg>
